<?xml version="1.0" encoding="utf-8"?>
<!-- Generator: Adobe Illustrator 24.0.1, SVG Export Plug-In . SVG Version: 6.00 Build 0)  -->
<svg version="1.1" xmlns="http://www.w3.org/2000/svg" xmlns:xlink="http://www.w3.org/1999/xlink" x="0px" y="0px"
	 viewBox="0 0 720 720" style="enable-background:new 0 0 720 720;" xml:space="preserve">
<style type="text/css">
	.st0{fill:none;stroke:#0099FF;stroke-width:1.0171;stroke-linecap:round;stroke-linejoin:round;stroke-miterlimit:10;}
	.st1{fill:#0099FF;}
	.st2{fill:#292C33;}
	.st3{fill:#96FFA8;}
	.st4{fill:#FAFBFC;}
	.st5{fill:#F23F37;}
	.st6{fill:none;stroke:#292C33;stroke-linecap:round;stroke-linejoin:round;stroke-miterlimit:10;}
	.st7{fill:#0072BD;}
	.st8{fill:none;stroke:#292C33;stroke-width:1.0491;stroke-linecap:round;stroke-linejoin:round;stroke-miterlimit:10;}
	.st9{fill:#A4A5A6;}
	.st10{fill:none;stroke:#292C33;stroke-width:0.972;stroke-linecap:round;stroke-linejoin:round;stroke-miterlimit:10;}
	.st11{opacity:0.35;fill:url(#SVGID_1_);}
</style>
<g id="grid_floor">
	<line class="st0" x1="343.98" y1="516.05" x2="319.15" y2="638.46"/>
	<line class="st0" x1="322.28" y1="516.05" x2="276.76" y2="638.46"/>
	<line class="st0" x1="300.58" y1="516.05" x2="234.37" y2="638.46"/>
	<line class="st0" x1="278.88" y1="516.05" x2="191.98" y2="638.46"/>
	<line class="st0" x1="257.17" y1="516.05" x2="149.59" y2="638.46"/>
	<line class="st0" x1="235.47" y1="516.05" x2="107.2" y2="638.46"/>
	<line class="st0" x1="213.77" y1="516.05" x2="64.81" y2="638.46"/>
	<polygon class="st0" points="22.42,638.46 192.07,516.05 518.78,516.05 688.44,638.46 	"/>
	<line class="st0" x1="355.52" y1="516.05" x2="355.52" y2="638.46"/>
	<line class="st0" x1="366.88" y1="516.05" x2="391.7" y2="638.46"/>
	<line class="st0" x1="388.58" y1="516.05" x2="434.09" y2="638.46"/>
	<line class="st0" x1="410.28" y1="516.05" x2="476.49" y2="638.46"/>
	<line class="st0" x1="431.98" y1="516.05" x2="518.88" y2="638.46"/>
	<line class="st0" x1="453.68" y1="516.05" x2="561.27" y2="638.46"/>
	<line class="st0" x1="475.38" y1="516.05" x2="603.66" y2="638.46"/>
	<line class="st0" x1="497.08" y1="516.05" x2="646.05" y2="638.46"/>
	<line class="st0" x1="186.71" y1="520.04" x2="524.34" y2="520.04"/>
	<line class="st0" x1="174.61" y1="528.58" x2="535.72" y2="528.58"/>
	<line class="st0" x1="156.19" y1="542.02" x2="554.78" y2="542.02"/>
	<line class="st0" x1="133.88" y1="558.18" x2="577.42" y2="558.18"/>
	<line class="st0" x1="104.13" y1="579.62" x2="606.54" y2="579.62"/>
	<line class="st0" x1="64.81" y1="607.77" x2="645.62" y2="607.77"/>
	<g id="XMLID_4_">
		<g>
			<path class="st1" d="M365.97,628.15c-7.17,0.6-15.41,0.4-15.41,0.4c0,0.94,0.03,1.86,0.1,2.73l0.08-0.01
				c2.13-0.08,4.14,0.01,6,0.22c12.5,0.35,19.52-2.54,19.52-2.54c0.95-1.77-1.37-2.49-1.37-2.49
				C373.04,627.32,369.65,627.84,365.97,628.15z"/>
			<path class="st1" d="M494.66,491.98c1.82,7.64,5.97,9.28,5.97,9.28c1.11,0,0.99-1.26,0.99-1.26c-2.75-1.9-4.06-4.26-4.68-6.04
				c-0.55-1.54-0.57-2.65-0.57-2.65v-0.03v-0.01c-0.49-0.1-1.04-0.18-1.63-0.25l-0.01,0.06C494.7,491.1,494.67,491.44,494.66,491.98
				L494.66,491.98z"/>
			<path class="st1" d="M492.13,500.01c-0.31-4.42-0.2-9.14-0.2-9.14c-0.61,0-1.2,0.02-1.77,0.06l0.01,0.05
				c0.05,1.38-0.01,2.67-0.14,3.88c-0.23,8.09,1.64,12.63,1.64,12.63c1.14,0.62,1.61-0.88,1.61-0.88c-0.56-1.2-0.89-3.39-1.09-5.77
				C492.17,500.56,492.15,500.29,492.13,500.01z"/>
			<path class="st2" d="M496.37,491.31c0,0,0.02,1.11,0.57,2.65c1.26-0.32,2.04-0.77,2.04-1.27c0-0.57-1.02-1.08-2.61-1.42v0.01
				V491.31z"/>
			<path class="st2" d="M484.88,492.69c0,0.41,0.55,0.8,1.46,1.1h0.04c0.05-1.28-0.03-2.1-0.03-2.1l-0.03-0.1
				C485.42,491.89,484.88,492.28,484.88,492.69z"/>
			<path class="st2" d="M353.37,639.44c0.65,0,1.24-0.83,1.71-2.24v-0.07c-1.99-0.09-3.25,0.04-3.25,0.04l-0.16,0.05
				C352.14,638.61,352.74,639.44,353.37,639.44z"/>
			<path class="st2" d="M351.24,621.69c0,0,1.72-0.04,4.11-0.88c-0.51-1.95-1.2-3.16-1.98-3.16c-0.88,0-1.67,1.57-2.18,4.03
				L351.24,621.69z"/>
			<path class="st3" d="M352.28,624.32c11.81-2.81,14.35-9.21,14.35-9.21c0-1.73-1.95-1.55-1.95-1.55
				c-2.94,4.25-6.59,6.28-9.33,7.25c-2.39,0.84-4.11,0.88-4.11,0.88l-0.05-0.01c-0.16,0.76-0.29,1.61-0.4,2.53l0.1,0.01
				c0.03,0.05,0.55,0.1,1.39,0.13V624.32z"/>
			<path class="st4" d="M356.74,631.49c-1.86-0.21-3.87-0.3-6-0.22l-0.08,0.01c0.15,2.4,0.52,4.48,1.01,5.94l0.16-0.05
				c0,0,1.26-0.13,3.25-0.04c3.26,0.14,8.48,0.85,13.28,3.68c0,0,3.63-1.28,2.54-5C370.9,635.81,365.37,632.43,356.74,631.49z"/>
			<path class="st3" d="M491.93,490.87c0,0-0.11,4.72,0.2,9.14c0.02,0.28,0.04,0.55,0.06,0.83h0.01c2.51,1.01,3.17-0.44,3.17-0.44
				c-0.06-0.2-0.12-0.42-0.17-0.65c-0.56-2.44-0.61-6.09-0.55-7.77c0.02-0.54,0.05-0.88,0.08-0.9l0.01-0.06
				C493.88,490.92,492.93,490.87,491.93,490.87z"/>
			<path class="st4" d="M490.03,494.86c0.13-1.21,0.19-2.5,0.14-3.88l-0.01-0.05c-1.55,0.1-2.9,0.34-3.84,0.66l0.03,0.1
				c0,0,0.08,0.82,0.03,2.1c-0.09,2.12-0.55,5.49-2.38,8.59c0,0,0.83,2.35,3.23,1.64C487.23,504.02,489.42,500.44,490.03,494.86z"/>
			<path class="st3" d="M473.59,488.51c0,0-0.46,2.18,2.45,2.18c2.9,0,2.18-2.72,2.18-4.36c0-1.63,0-26.7,0-26.7l-4.63,5.27v21.25
				V488.51z"/>
			<path class="st3" d="M226.85,535.73c1.5,0.97,3.03,2.05,4.54,3.22l0.04-0.04c0,0-1.49-2.18-2.31-2.18c-0.2,0-0.5-0.2-0.82-0.49
				c-0.95-0.88-2.18-2.64-2.18-2.64c-0.82-3.41-0.68-2.73-3.54-5.04c-1.23-1-2.55-1.62-3.87-1.91c-1.74-0.39-3.49-0.21-5.12,0.41
				c-2.59,0.99-5.97,7.13-6.58,8.27c-0.07,0.12-0.1,0.18-0.1,0.18c-1.09,4.08-3.54,4.36-5.31,6.81c-1.77,2.45-6.67,7.22-8.85,11.71
				c-2.18,4.5-4.91,11.17,0.95,17.44c5.35,5.71,16.48,9.05,18.38,9.59c0.21-0.14,0.42-0.29,0.63-0.44l2.11-1.39
				c5.99-3.81,14.71-4.49,18.11,2.05c0.21,0.4,0.42,0.76,0.65,1.1c0.94,1.39,2.28,2.37,5.89,4.34c4.5,2.46,9.54,2.87,9.54,2.87
				s39.47,1.9,40.73,1.9c2.77,0,4.08-0.82,4.22-2.99c0.13-2.18-0.14-5.18-3.82-4.77c-3.67,0.41-32.55-1.77-37.46-1.77
				c-4.9,0-6.76-0.28-11.48-3.54c-1.21-0.84-2.1-1.78-2.84-2.73c-2.19-2.76-3.21-5.63-7.67-6.42c-2.43-0.43-4.26-0.39-5.68-0.14
				c-2.82,0.54-3.97,2.01-4.81,2.61c-1.27,0.91-4.41,3-4.41,3s-2.56,0.41-13.28-4.86c-10.72-5.27-2-19.62,2.36-22.89
				c3.04-2.28,4.44-4.42,5.88-7.23c0.62-1.22,1.25-2.57,2.02-4.12c2.54-5.08,6.09-4.22,8.99-4.04l0.36,0.15
				C223.34,533.1,224.88,534.46,226.85,535.73z"/>
			<path class="st3" d="M235.38,529.1c-2.45,2.18-4.45,5.41-6.81,6.68l-0.27,0.46c0.32,0.29,0.62,0.49,0.82,0.49
				c0.82,0,2.31,2.18,2.31,2.18s4.5-4.22,6.27-5.99c1.77-1.77,5.45-6.4,5.45-11.99c0-5.58,0-48.49,0-48.49l-6-4.5l1.23,2.86v49.86
				C238.38,520.66,237.84,526.92,235.38,529.1z"/>
			<path class="st5" d="M484.88,422.23v70.46c0-0.41,0.54-0.8,1.44-1.1c0.94-0.32,2.29-0.56,3.84-0.66
				c0.57-0.04,1.16-0.06,1.77-0.06c1,0,1.95,0.05,2.81,0.15c0.59,0.07,1.14,0.15,1.63,0.25c1.59,0.34,2.61,0.85,2.61,1.42v-70.93
				L484.88,422.23z"/>
			<path class="st5" d="M352.28,624.35c-0.84-0.03-1.36-0.08-1.39-0.13l-0.1-0.01c-0.15,1.33-0.23,2.8-0.23,4.34
				c0,0,8.24,0.2,15.41-0.4v-0.01c1.57-3.89-0.68-4.91-0.68-4.91C361.61,624.33,355.12,624.45,352.28,624.35z"/>
			<path class="st5" d="M212.08,581.06c-6.32,4.43-13.29,7.91-18.65,9.52c-16.35,4.91-32.69,23.62-27.61,36.15
				c5.09,12.53,35.35,12.71,35.35,12.71h152.2c-0.63,0-1.23-0.83-1.7-2.22c-0.49-1.46-0.86-3.54-1.01-5.94
				c-0.07-0.87-0.1-1.79-0.1-2.73c0-1.54,0.08-3.01,0.23-4.34c0.11-0.92,0.24-1.77,0.4-2.53c0.51-2.46,1.3-4.03,2.18-4.03h-152.2
				c-10.06-0.54-11.74-11.45,14.6-22.16c7.16-2.92,13.09-7.69,17.69-13.03l0.12-0.08c-0.23-0.34-0.44-0.7-0.65-1.1
				c-3.4-6.54-12.12-5.86-18.11-2.05l-2.11,1.39C212.5,580.77,212.29,580.92,212.08,581.06z"/>
			<path class="st5" d="M210.75,539.76l0.19,0.1c2.75,2.57,6.77,5.76,12.64,10.22c7.09,5.39,6.13,12.29,1.4,18.9l0.03,0.15
				c1.42-0.25,3.25-0.29,5.68,0.14c4.46,0.79,5.48,3.66,7.67,6.42l0.19-0.15c2.87-4.61,4.8-9.23,5.73-13.11
				c2.14-8.83-5.05-17.4-12.89-23.47v-0.01c-1.51-1.17-3.04-2.25-4.54-3.22c-1.97-1.27-3.51-2.63-4.73-3.98l-0.36-0.15
				c-2.9-0.18-6.45-1.04-8.99,4.04C212,537.19,211.37,538.54,210.75,539.76z"/>
			<path class="st5" d="M218.74,526.49c-1.16-2.74-1.16-4.74-1.16-4.74v-69.2l-12.53-8.54c0,0,0,74.83,0,82.82
				c0,3.48,0.21,5.82,1.87,8.44l0.09,0.06c0.61-1.14,3.99-7.28,6.58-8.27c1.63-0.62,3.38-0.8,5.12-0.41L218.74,526.49z"/>
			<path class="st5" d="M468.23,505.58c2.9,0,2.18-2.72,2.18-4.36c0-1.63,0-37.41,0-37.41l-4.63,5.27v31.96v2.36
				C465.78,503.4,465.32,505.58,468.23,505.58z"/>
		</g>
		<g>
			<path class="st6" d="M355.36,620.84c0-0.01-0.01-0.02-0.01-0.03c-0.51-1.95-1.2-3.16-1.98-3.16c-0.88,0-1.67,1.57-2.18,4.03
				c-0.16,0.76-0.29,1.61-0.4,2.53c-0.15,1.33-0.23,2.8-0.23,4.34c0,0.94,0.03,1.86,0.1,2.73c0.15,2.4,0.52,4.48,1.01,5.94
				c0.47,1.39,1.07,2.22,1.7,2.22c0.65,0,1.24-0.83,1.71-2.24"/>
			<path class="st6" d="M233.46,582.46c-4.6,5.34-10.53,10.11-17.69,13.03c-26.34,10.71-24.66,21.62-14.6,22.16h152.2"/>
			<path class="st6" d="M222.12,531.75c1.22,1.35,2.76,2.71,4.73,3.98c1.5,0.97,3.03,2.05,4.54,3.22v0.01
				c7.84,6.07,15.03,14.64,12.89,23.47c-0.93,3.88-2.86,8.5-5.73,13.11"/>
			<path class="st6" d="M206.92,535.27c-1.66-2.62-1.87-4.96-1.87-8.44c0-7.99,0-82.82,0-82.82l12.53,8.54v69.2c0,0,0,2,1.16,4.74"
				/>
			<path class="st6" d="M224.98,568.98c4.73-6.61,5.69-13.51-1.4-18.9c-5.87-4.46-9.89-7.65-12.64-10.22"/>
			<path class="st6" d="M233.58,582.38c-0.23-0.34-0.44-0.7-0.65-1.1c-3.4-6.54-12.12-5.86-18.11-2.05l-2.11,1.39
				c-0.21,0.15-0.42,0.3-0.63,0.44c-6.32,4.43-13.29,7.91-18.65,9.52c-16.35,4.91-32.69,23.62-27.61,36.15
				c5.09,12.53,35.35,12.71,35.35,12.71h152.2"/>
			<path class="st6" d="M221.76,531.6c-2.9-0.18-6.45-1.04-8.99,4.04c-0.77,1.55-1.4,2.9-2.02,4.12c-1.44,2.81-2.84,4.95-5.88,7.23
				c-4.36,3.27-13.08,17.62-2.36,22.89c10.72,5.27,13.28,4.86,13.28,4.86s3.14-2.09,4.41-3c0.84-0.6,1.99-2.07,4.81-2.61
				c1.42-0.25,3.25-0.29,5.68,0.14c4.46,0.79,5.48,3.66,7.67,6.42c0.74,0.95,1.63,1.89,2.84,2.73c4.72,3.26,6.58,3.54,11.48,3.54
				c4.91,0,33.79,2.18,37.46,1.77c3.68-0.41,3.95,2.59,3.82,4.77c-0.14,2.17-1.45,2.99-4.22,2.99c-1.26,0-40.73-1.9-40.73-1.9
				s-5.04-0.41-9.54-2.87c-3.61-1.97-4.95-2.95-5.89-4.34"/>
			<path class="st6" d="M212.36,581.14c0,0-0.1-0.03-0.28-0.08c-1.9-0.54-13.03-3.88-18.38-9.59c-5.86-6.27-3.13-12.94-0.95-17.44
				c2.18-4.49,7.08-9.26,8.85-11.71c1.77-2.45,4.22-2.73,5.31-6.81c0,0,0.03-0.06,0.1-0.18c0.61-1.14,3.99-7.28,6.58-8.27
				c1.63-0.62,3.38-0.8,5.12-0.41c1.32,0.29,2.64,0.91,3.87,1.91c2.86,2.31,2.72,1.63,3.54,5.04c0,0,1.23,1.76,2.18,2.64
				c0.32,0.29,0.62,0.49,0.82,0.49c0.82,0,2.31,2.18,2.31,2.18s4.5-4.22,6.27-5.99c1.77-1.77,5.45-6.4,5.45-11.99
				c0-5.58,0-48.49,0-48.49l-6-4.5l1.23,2.86v49.86c0,0-0.54,6.26-3,8.44c-2.45,2.18-4.45,5.41-6.81,6.68"/>
			<path class="st6" d="M351.83,637.17c0,0,1.26-0.13,3.25-0.04c3.26,0.14,8.48,0.85,13.28,3.68c0,0,3.63-1.28,2.54-5
				c0,0-5.53-3.38-14.16-4.32c-1.86-0.21-3.87-0.3-6-0.22"/>
			<path class="st6" d="M350.56,628.55c0,0,8.24,0.2,15.41-0.4c3.68-0.31,7.07-0.83,8.92-1.69c0,0,2.32,0.72,1.37,2.49
				c0,0-7.02,2.89-19.52,2.54c-0.23,0-0.47-0.01-0.71-0.02"/>
			<path class="st6" d="M350.89,624.22c0.03,0.05,0.55,0.1,1.39,0.13c2.84,0.1,9.33-0.02,13.01-1.12c0,0,2.25,1.02,0.68,4.91"/>
			<path class="st6" d="M351.24,621.69c0,0,1.72-0.04,4.11-0.88c2.74-0.97,6.39-3,9.33-7.25c0,0,1.95-0.18,1.95,1.55
				c0,0-2.54,6.4-14.35,9.21"/>
			<path class="st6" d="M496.92,493.97c0.01,0,0.01,0,0.02-0.01c1.26-0.32,2.04-0.77,2.04-1.27c0-0.57-1.02-1.08-2.61-1.42
				c-0.49-0.1-1.04-0.18-1.63-0.25c-0.86-0.1-1.81-0.15-2.81-0.15c-0.61,0-1.2,0.02-1.77,0.06c-1.55,0.1-2.9,0.34-3.84,0.66
				c-0.9,0.3-1.44,0.69-1.44,1.1s0.55,0.8,1.46,1.1"/>
			<polyline class="st6" points="484.88,492.69 484.88,422.23 498.98,421.76 498.98,492.69 			"/>
			<path class="st6" d="M486.35,491.69c0,0,0.08,0.82,0.03,2.1c-0.09,2.12-0.55,5.49-2.38,8.59c0,0,0.83,2.35,3.23,1.64
				c0,0,2.19-3.58,2.8-9.16c0.13-1.21,0.19-2.5,0.14-3.88"/>
			<path class="st6" d="M491.93,490.87c0,0-0.11,4.72,0.2,9.14c0.02,0.28,0.04,0.55,0.06,0.83c0.2,2.38,0.53,4.57,1.09,5.77
				c0,0-0.47,1.5-1.61,0.88c0,0-1.87-4.54-1.64-12.63c0-0.15,0.01-0.3,0.01-0.45"/>
			<path class="st6" d="M494.73,491.08c-0.03,0.02-0.06,0.36-0.08,0.9c-0.06,1.68-0.01,5.33,0.55,7.77
				c0.05,0.23,0.11,0.45,0.17,0.65c0,0-0.66,1.45-3.17,0.44"/>
			<path class="st6" d="M496.37,491.31c0,0,0.02,1.11,0.57,2.65c0.62,1.78,1.93,4.14,4.68,6.04c0,0,0.12,1.26-0.99,1.26
				c0,0-4.15-1.64-5.97-9.28"/>
			<path class="st6" d="M473.59,464.9v21.25v2.36c0,0-0.46,2.18,2.45,2.18c2.9,0,2.18-2.72,2.18-4.36c0-1.63,0-26.7,0-26.7
				L473.59,464.9z"/>
			<path class="st6" d="M465.78,469.08v31.96v2.36c0,0-0.46,2.18,2.45,2.18c2.9,0,2.18-2.72,2.18-4.36c0-1.63,0-37.41,0-37.41
				L465.78,469.08z"/>
		</g>
	</g>
</g>
<g id="monitor_screen-_OFF">
	<path class="st2" d="M493.97,391.18c2.72,12.53-8.45,25.06-8.45,25.06h-75.19l-13.08-7.44c0,0-2.91-2-8.17-2
		c-5.27,0-63.98,1.09-69.25,1.09c-5.27,0-8.17,2-8.17,2l-13.08,7.44h-75.19c0,0-11.17-12.53-8.45-25.06
		c2.73-12.53,27.79-114.97,59.67-143.85c0,0,11.98-11.99,40.32-14.16l79.05-1.09c28.34,2.18,40.32,14.16,40.32,14.16
		C466.18,276.21,491.24,378.65,493.97,391.18z"/>
</g>
<g id="monitor_screen-_ON_copy">
	<path class="st3" d="M493.97,391.18c2.72,12.53-8.45,25.06-8.45,25.06h-75.19l-13.08-7.44c0,0-2.91-2-8.17-2
		c-5.27,0-63.98,1.09-69.25,1.09c-5.27,0-8.17,2-8.17,2l-13.08,7.44h-75.19c0,0-11.17-12.53-8.45-25.06
		c2.73-12.53,27.79-114.97,59.67-143.85c0,0,11.98-11.99,40.32-14.16l79.05-1.09c28.34,2.18,40.32,14.16,40.32,14.16
		C466.18,276.21,491.24,378.65,493.97,391.18z"/>
</g>
<g id="monitor">
	<g id="XMLID_2_">
		<g>
			<path class="st7" d="M538.26,405.35c0.02,10.32-6.97,15.8-6.97,15.8s-8.97,5.99-20.51,13.68l-0.08-0.01
				c0.43-2.61,0.43-5.5,0.43-5.5l-97.9,0.91l-117.56,1.09l-97.89-0.91c0,0,0,2.77,0.4,5.33l-0.22,0.07
				c-11.46-7.64-20.34-13.57-20.34-13.57s-6.99-5.47-6.97-15.8h0.07c0,0,3.26,17.8,24.52,19.25c21.25,1.45,101.71,1.27,101.71,1.27
				l115.01-1.09c0,0,80.46,0.18,101.71-1.27c21.25-1.45,24.52-19.25,24.52-19.25H538.26z"/>
			<path class="st1" d="M465.95,217.42c-0.83-1.59-2.73-4.69-5.91-7.1c-2.21-1.69-5.05-3.04-8.57-3.31
				c-5.23-0.4-49.25-3.71-94.41-3.45c-46.52,0.27-94.23,4.13-99.62,4.54c-3.51,0.27-6.34,1.61-8.55,3.3
				c-3.2,2.41-5.11,5.53-5.94,7.11c-0.33,0.64-0.49,1.03-0.49,1.03S191.24,365.03,182.79,392c-8.44,26.97,36.78,25.33,36.78,25.33
				h3.82h75.19l13.08-7.44c0,0,2.9-2,8.17-2c5.27,0,63.98-1.09,69.25-1.09c5.26,0,8.17,2,8.17,2l13.08,7.44h75.19h3.81
				c0,0,45.23,1.64,36.78-25.33c-8.44-26.97-59.66-172.46-59.66-172.46S466.29,218.06,465.95,217.42z M538.26,405.35h-0.07
				c0,0-3.27,17.8-24.52,19.25c-21.25,1.45-101.71,1.27-101.71,1.27l-115.01,1.09c0,0-80.46,0.18-101.71-1.27
				c-21.26-1.45-24.52-19.25-24.52-19.25h-0.07c0-2.07,0.28-4.34,0.97-6.81c4.09-14.72,66.48-182.27,66.48-182.27
				s3-13.35,27.51-15.8c0,0,54.22-3.81,90.91-3.81s86.77,2.72,86.77,2.72c24.52,2.45,27.52,15.8,27.52,15.8
				s62.39,167.55,66.47,182.27C537.96,401,538.26,403.27,538.26,405.35z"/>
			<path class="st7" d="M526.11,390.91c8.45,26.97-36.78,25.33-36.78,25.33h-3.81c0,0,11.17-12.53,8.45-25.06
				c-2.73-12.53-27.79-114.97-59.67-143.85l25.07-30.78c0,0,0,0,0.01-0.01c0.21-0.1,3.26-1.53,6.57,0.88
				c0.34,0.64,0.5,1.03,0.5,1.03S517.67,363.94,526.11,390.91z"/>
			<path class="st1" d="M413.23,430.23l97.9-0.91c0,0,0,2.89-0.43,5.5c-0.23,1.47-0.61,2.86-1.2,3.58c0,0-76.47,3.27-94.99,3.27
				l-120.11,1.09c-18.52,0-94.99-3.27-94.99-3.27c-0.61-0.75-0.99-2.21-1.23-3.75c-0.4-2.56-0.4-5.33-0.4-5.33l97.89,0.91
				L413.23,430.23z"/>
			<path class="st7" d="M509.5,438.4c-1.64,2-50.5,38.14-50.5,38.14s-21.07,8-33.6,7.27l-0.45,0.2l-7.36-16.37
				c0,0-13.26-13.44-46.67-13.62l-32.93,1.09c-33.42,0.18-46.68,13.62-46.68,13.62l-7.36,16.37l-0.45-0.2
				c-12.53,0.72-33.6-7.27-33.6-7.27s-48.85-36.14-50.49-38.14c0,0,76.47,3.27,94.99,3.27l120.11-1.09
				C433.03,441.67,509.5,438.4,509.5,438.4z"/>
			<path class="st2" d="M460.04,210.32c3.18,2.41,5.08,5.51,5.91,7.1c-3.31-2.41-6.36-0.98-6.57-0.88
				C459.57,216.33,461.97,213.69,460.04,210.32z"/>
			<path class="st1" d="M442.88,509.01l18.02,20.84c0,0-9.21,47.68-106.2,47.68c-96.98,0-105.69-46.59-105.69-46.59l17.01-20.84
				c0,0,11.81,38.85,90.41,38.85S442.88,509.01,442.88,509.01z"/>
			<path class="st1" d="M460.04,210.32c1.93,3.37-0.47,6.01-0.66,6.22c-0.01,0.01-0.01,0.01-0.01,0.01l-25.07,30.78
				c0,0-11.98-11.98-40.32-14.16l-79.05,1.09c-28.34,2.17-40.32,14.16-40.32,14.16l-25.07-30.78c0,0,0,0-0.01-0.01
				c-0.2-0.2-2.64-2.82-0.64-6.23c2.21-1.69,5.04-3.03,8.55-3.3c5.39-0.41,53.1-4.27,99.62-4.54c45.16-0.26,89.18,3.05,94.41,3.45
				C454.99,207.28,457.83,208.63,460.04,210.32z"/>
			<path class="st7" d="M435.26,505.6l7.62,3.41c0,0-7.85,39.94-86.45,39.94s-90.41-38.85-90.41-38.85l7.63-3.41l0.48,0.22
				l-1.98,4.41c0,0,9.27,32.97,84.19,32.97s80.41-34.05,80.41-34.05l-1.99-4.42L435.26,505.6z"/>
			<path class="st7" d="M434.76,505.82l1.99,4.42c0,0-5.49,34.05-80.41,34.05s-84.19-32.97-84.19-32.97l1.98-4.41l9.82-21.81
				l7.36-16.37c0,0,13.26-13.44,46.68-13.62l32.93-1.09c33.41,0.18,46.67,13.62,46.67,13.62l7.36,16.37L434.76,505.82z"/>
			<path class="st7" d="M249.54,217.64l25.07,30.78c-31.88,28.88-56.94,131.32-59.67,143.85c-2.72,12.53,8.45,25.06,8.45,25.06
				h-3.82c0,0-45.22,1.64-36.78-25.33c8.45-26.97,59.67-172.46,59.67-172.46s0.16-0.39,0.49-1.03
				C246.26,216.1,249.32,217.53,249.54,217.64C249.54,217.64,249.54,217.64,249.54,217.64z"/>
			<path class="st2" d="M248.89,211.4c-2,3.41,0.44,6.03,0.64,6.23c-0.21-0.1-3.27-1.53-6.58,0.88
				C243.78,216.93,245.69,213.81,248.89,211.4z"/>
		</g>
	</g>
	<g>
		<path class="st6" d="M197.96,435.81c-11.46-7.64-20.34-13.57-20.34-13.57s-6.99-5.47-6.97-15.8c0-2.07,0.28-4.34,0.97-6.81
			c4.09-14.72,66.48-182.27,66.48-182.27s3-13.35,27.51-15.8c0,0,54.22-3.81,90.91-3.81s86.77,2.72,86.77,2.72
			c24.52,2.45,27.52,15.8,27.52,15.8s62.39,167.55,66.47,182.27c0.68,2.46,0.98,4.73,0.98,6.81c0.02,10.32-6.97,15.8-6.97,15.8
			s-8.97,5.99-20.51,13.68"/>
		<path class="st6" d="M223.39,417.33c0,0-11.17-12.53-8.45-25.06c2.73-12.53,27.79-114.97,59.67-143.85
			c0,0,11.98-11.99,40.32-14.16l79.05-1.09c28.34,2.18,40.32,14.16,40.32,14.16c31.88,28.88,56.94,131.32,59.67,143.85
			c2.72,12.53-8.45,25.06-8.45,25.06"/>
		<path class="st6" d="M249.53,217.63c-0.2-0.2-2.64-2.82-0.64-6.23"/>
		<line class="st6" x1="274.61" y1="248.42" x2="249.54" y2="217.64"/>
		<path class="st6" d="M249.54,217.64C249.54,217.64,249.54,217.64,249.54,217.64c-0.22-0.11-3.28-1.54-6.59,0.87
			c-0.01,0.01-0.03,0.02-0.04,0.03"/>
		<path class="st6" d="M170.72,406.44c0,0,3.26,17.8,24.52,19.25c21.25,1.45,101.71,1.27,101.71,1.27l115.01-1.09
			c0,0,80.46,0.18,101.71-1.27c21.25-1.45,24.52-19.25,24.52-19.25"/>
		<path class="st6" d="M199.41,439.49c0,0,76.47,3.27,94.99,3.27l120.11-1.09c18.52,0,94.99-3.27,94.99-3.27"/>
		<path class="st6" d="M434.76,505.82l1.99,4.42c0,0-5.49,34.05-80.41,34.05s-84.19-32.97-84.19-32.97l1.98-4.41l9.82-21.81
			l7.36-16.37c0,0,13.26-13.44,46.68-13.62l32.93-1.09c33.41,0.18,46.67,13.62,46.67,13.62l7.36,16.37L434.76,505.82z"/>
		<path class="st8" d="M442.88,509.01c0,0-7.85,39.94-86.45,39.94s-90.41-38.85-90.41-38.85"/>
		<path class="st6" d="M273.65,506.69l-7.63,3.41l-17.01,20.84c0,0,8.71,46.59,105.69,46.59c96.99,0,106.2-47.68,106.2-47.68
			l-18.02-20.84l-7.62-3.41"/>
		<path class="st6" d="M460.04,210.32c-2.21-1.69-5.05-3.04-8.57-3.31c-5.23-0.4-49.25-3.71-94.41-3.45
			c-46.52,0.27-94.23,4.13-99.62,4.54c-3.51,0.27-6.34,1.61-8.55,3.3c-3.2,2.41-5.11,5.53-5.94,7.11c-0.33,0.64-0.49,1.03-0.49,1.03
			S191.24,365.03,182.79,392c-8.44,26.97,36.78,25.33,36.78,25.33h3.82h75.19l13.08-7.44c0,0,2.9-2,8.17-2
			c5.27,0,63.98-1.09,69.25-1.09c5.26,0,8.17,2,8.17,2l13.08,7.44h75.19h3.81c0,0,45.23,1.64,36.78-25.33
			c-8.44-26.97-59.66-172.46-59.66-172.46s-0.16-0.39-0.5-1.03C465.12,215.83,463.22,212.73,460.04,210.32z"/>
		<path class="st6" d="M459.38,216.54c0.19-0.21,2.59-2.85,0.66-6.22c-0.01-0.02-0.03-0.05-0.04-0.07"/>
		<line class="st6" x1="434.3" y1="247.33" x2="459.37" y2="216.55"/>
		<path class="st6" d="M459.37,216.55c0,0,0,0,0.01-0.01c0.21-0.1,3.26-1.53,6.57,0.88c0.02,0.01,0.03,0.02,0.05,0.03"/>
		<path class="st6" d="M425.4,483.81c12.53,0.73,33.6-7.27,33.6-7.27s48.86-36.14,50.5-38.14c0.59-0.72,0.97-2.11,1.2-3.58
			c0.43-2.61,0.43-5.5,0.43-5.5l-97.9,0.91l-117.56,1.09l-97.89-0.91c0,0,0,2.77,0.4,5.33c0.24,1.54,0.62,3,1.23,3.75
			c1.64,2,50.49,38.14,50.49,38.14s21.07,7.99,33.6,7.27"/>
	</g>
</g>
<g id="computer_objects">
	<g id="XMLID_3_">
		<g>
			<path class="st9" d="M594.55,615.09c0,0,1.07,1.05,0.41,3.08c-0.66,2.03-3.49,1.87-3.49,1.87l-10.12-5.99l-6.07-3.59
				c0,0-1.76-1.45-0.6-3.63c1.15-2.18,3.68-1.33,3.68-1.33l5.16,3.06L594.55,615.09z"/>
			<path class="st5" d="M577.15,510.79c6.64,1.58,13.73,6.22,13.57,17.15c-0.09,6.52-1.51,11.15-5.58,14.67l-0.15-0.07
				c0.76-1.63,0.38-2.79,0.38-2.79l-46.59,21.98l-0.23-0.13c1.51-2.54,2.53-5.54,2.87-8.79l0.17,0.02l44.87-21.25
				c0,0,1.36-1.46,0.81-3.73c-0.54-2.27-2.9-2.54-2.9-2.54l-43.32,19.8l-0.06,0.02c-0.68-3-1.94-5.71-3.62-7.94l0.44-0.21
				l41.29-20.02c0,0,0.64-2.09-1.09-3.73c-0.36-0.34-0.81-0.53-1.29-0.63L577.15,510.79z"/>
			<path class="st5" d="M587.27,527.85c0.55,2.27-0.81,3.73-0.81,3.73l-44.87,21.25c0,0,2-2.46,1.64-4.45
				c-0.36-2-2.18-3.27-2.18-3.27l43.32-19.8C584.37,525.31,586.73,525.58,587.27,527.85z"/>
			<path class="st5" d="M585.37,539.75c0,0,0.38,1.16-0.38,2.79c-0.19,0.41-0.45,0.85-0.8,1.3c-0.67,0.85-48.07,23.43-49.55,24.13
				c0.34-0.23,2.83-1.92,3.46-2.97c0.68-1.14,0.68-3.27,0.68-3.27L585.37,539.75z"/>
			<path class="st9" d="M579.43,597.99c3.32,0.83,5.05,5.45,4.09,10.57l-5.16-3.06c0,0-2.53-0.85-3.68,1.33
				c-1.16,2.18,0.6,3.63,0.6,3.63l6.07,3.59l-0.03,0.05c-1.85,2.79-4.46,4.33-6.87,3.73c-0.17-0.04-0.34-0.1-0.5-0.16
				c-3.18-1.23-4.69-6.15-3.38-11.36C571.94,600.83,575.91,597.11,579.43,597.99z"/>
			<path class="st5" d="M578.01,513.23c1.73,1.64,1.09,3.73,1.09,3.73l-41.29,20.02l-0.07-0.14c0,0-0.91-3.18-2.41-4.27
				c-1.5-1.08-2.77-0.09-2.77-0.09l-0.05,0.08c-0.17-0.12-0.36-0.24-0.54-0.35l40.5-18.98c0,0,2.39-1.02,4.25-0.63
				C577.2,512.7,577.65,512.89,578.01,513.23z"/>
			<path class="st9" d="M579.43,597.99c-3.52-0.88-7.49,2.84-8.86,8.32c-1.31,5.21,0.2,10.13,3.38,11.36l-0.02,0.04
				c0,0-4.99-0.84-6.84-5.19c-2.37-5.58,1.15-10.95,1.15-10.95C572.71,594.64,579.43,597.99,579.43,597.99z"/>
			<path class="st5" d="M577.15,510.79l-0.43,1.81c-1.86-0.39-4.25,0.63-4.25,0.63l-40.5,18.98c0.18,0.11,0.37,0.23,0.54,0.35
				c0.99,0.66,1.88,1.45,2.63,2.18c-2.67-2.42-5.99-3.85-9.57-3.85c-1.86,0-3.63,0.32-5.27,0.94l45.77-20.78
				c0.16-0.13,0.4-0.26,0.71-0.37C568.59,510.01,572.77,509.74,577.15,510.79z"/>
			<path class="st5" d="M566.75,510.6l0.03,0.08c-0.31,0.11-0.55,0.24-0.71,0.37l-45.77,20.78c-0.78,0.27-1.53,0.63-2.24,1.05
				c-0.03-0.19-0.1-0.79,0.25-1.57c0.24-0.55,0.69-1.18,1.49-1.82c2.18-1.73,42.68-19.62,42.68-19.62S564.48,508.87,566.75,510.6z"
				/>
			<path class="st9" d="M555.75,585.01c0,0,3.52,5.36,1.15,10.95c-1.84,4.35-6.83,5.19-6.83,5.19l-0.02-0.05
				c3.18-1.24,4.68-6.14,3.37-11.35c-1.37-5.48-5.34-9.21-8.86-8.32C544.56,581.43,551.28,578.08,555.75,585.01z"/>
			<path class="st9" d="M553.42,589.75c1.31,5.21-0.19,10.11-3.37,11.35c-0.16,0.07-0.33,0.13-0.51,0.17
				c-2.4,0.6-5.01-0.95-6.87-3.73l-0.03-0.05l6.08-3.6c0,0,1.75-1.44,0.59-3.62c-1.15-2.18-3.67-1.33-3.67-1.33l-5.16,3.06
				l-0.01-0.01c-0.96-5.11,0.78-9.73,4.09-10.56C548.08,580.54,552.05,584.27,553.42,589.75z"/>
			<path class="st9" d="M549.31,590.27c1.16,2.18-0.59,3.62-0.59,3.62l-6.08,3.6l-10.12,5.99c0,0-2.83,0.16-3.49-1.87
				c-0.66-2.03,0.42-3.08,0.42-3.08l11.03-6.53l5.16-3.06C545.64,588.94,548.16,588.09,549.31,590.27z"/>
			<path class="st5" d="M543.23,548.38c0.36,1.99-1.64,4.45-1.64,4.45l-0.17-0.02c0.09-0.83,0.14-1.67,0.14-2.53
				c0-1.78-0.2-3.51-0.57-5.15l0.06-0.02C541.05,545.11,542.87,546.38,543.23,548.38z"/>
			<path class="st5" d="M520.3,531.83c1.64-0.62,3.41-0.94,5.27-0.94c3.58,0,6.9,1.43,9.57,3.85c0.09,0.09,0.18,0.17,0.26,0.26
				c1.18,1.2,1.93,2.21,1.93,2.21l0.04-0.02c1.68,2.23,2.94,4.94,3.62,7.94c0.37,1.64,0.57,3.37,0.57,5.15
				c0,0.86-0.05,1.7-0.14,2.53c-0.34,3.25-1.36,6.25-2.87,8.79c-1.41,2.39-3.26,4.37-5.41,5.77l-0.45,0.21l0.09,0.02
				c-2.17,1.33-4.62,2.08-7.21,2.08c-1.34,0-2.64-0.2-3.88-0.58l-0.04-0.08l4.6-2.14c0,0,2.79-1.64,3.2-2.59
				c0.28-0.64,0.15-1.34,0.04-1.73c1.19-1.57,2.11-3.45,2.63-5.54l-0.04-0.08l0.25-0.12c0,0,2.18-2.95,1.82-4.72
				c-0.32-1.52-1.53-2.61-1.86-2.88c-0.58-2.83-1.84-5.33-3.56-7.23l-0.01-0.03c0.12-0.05,0.18-0.08,0.18-0.08s0-1.84-1.84-3.27
				c-1.83-1.43-3.67-0.06-3.67-0.06l-0.37,0.15l-0.09-0.23c-0.73-0.18-1.49-0.26-2.27-0.26c-0.67,0-1.33,0.07-1.97,0.19
				c-0.84-1.01-3.34-1.28-3.34-1.28s-1.11,0.49-2.71,1.21c1.41-2.35,3.25-4.19,5.42-5.45C518.77,532.46,519.52,532.1,520.3,531.83z"
				/>
			<path class="st5" d="M533.14,567.37c2.15-1.4,4-3.38,5.41-5.77l0.23,0.13c0,0,0,2.13-0.68,3.27c-0.63,1.05-3.12,2.74-3.46,2.97
				c-0.03,0.01-0.04,0.02-0.04,0.02l-1.82-0.39C532.9,567.53,533.02,567.45,533.14,567.37z"/>
			<path class="st5" d="M537.74,536.84l0.07,0.14l-0.44,0.21c-0.61-0.8-1.26-1.54-1.97-2.19c-0.08-0.09-0.17-0.17-0.26-0.26
				c-0.75-0.73-1.64-1.52-2.63-2.18l0.05-0.08c0,0,1.27-0.99,2.77,0.09C536.83,533.66,537.74,536.84,537.74,536.84z"/>
			<path class="st5" d="M532.29,549.22c0.33,0.27,1.54,1.36,1.86,2.88c0.36,1.77-1.82,4.72-1.82,4.72l-0.25,0.12l-11.37,5.42
				l-0.27-0.08c0.41-1.46,0.63-3.02,0.63-4.64c0-1.22-0.12-2.41-0.36-3.54l11.49-4.95C532.2,549.15,532.23,549.17,532.29,549.22z"/>
			<path class="st5" d="M532.29,549.22c-0.06-0.05-0.09-0.07-0.09-0.07l-11.49,4.95c-0.57-2.8-1.82-5.28-3.53-7.17l0.01-0.01
				c0-0.12,10.05-4.35,11.53-4.96l0.01,0.03C530.45,543.89,531.71,546.39,532.29,549.22z"/>
			<path class="st5" d="M532.08,556.94l0.04,0.08c-0.52,2.09-1.44,3.97-2.63,5.54c-0.06-0.19-0.11-0.31-0.11-0.31l-11.65,5.45
				c1.21-1.52,2.15-3.37,2.71-5.42l0.27,0.08L532.08,556.94z"/>
			<path class="st5" d="M529.49,562.56c0.11,0.39,0.24,1.09-0.04,1.73c-0.41,0.95-3.2,2.59-3.2,2.59l-4.6,2.14l-8.55,3.99
				c0,0-1.9,0-2.72-0.82l-0.02-0.11c2.88-0.36,5.46-1.97,7.37-4.38l11.65-5.45C529.38,562.25,529.43,562.37,529.49,562.56z"/>
			<path class="st5" d="M528.9,541.88c0,0-0.06,0.03-0.18,0.08c-1.48,0.61-11.53,4.84-11.53,4.96l-0.01,0.01
				c-1.56-1.74-3.51-2.98-5.67-3.52l0.03-0.1l11.48-4.61l0.37-0.15c0,0,1.84-1.37,3.67,0.06C528.9,540.04,528.9,541.88,528.9,541.88
				z"/>
			<path class="st5" d="M522.93,538.47l0.09,0.23l-11.48,4.61l-0.03,0.1c-0.79-0.2-1.6-0.3-2.43-0.3c-1.01,0-1.99,0.15-2.92,0.44
				l-0.07-0.21l10.57-4.3c0.65-0.28,1.33-0.5,2.03-0.63v-0.01c0.64-0.12,1.3-0.19,1.97-0.19
				C521.44,538.21,522.2,538.29,522.93,538.47z"/>
			<path class="st5" d="M520.71,554.1c0.24,1.13,0.36,2.32,0.36,3.54c0,1.62-0.22,3.18-0.63,4.64c-0.56,2.05-1.5,3.9-2.71,5.42
				c-1.91,2.41-4.49,4.02-7.37,4.38c-0.42,0.06-0.85,0.09-1.28,0.09c-3.19,0-6.1-1.51-8.24-3.99l10.46-4.92l0.46-0.24
				c1.5-1.1,2.5-3.1,2.5-5.38c0-3.47-2.32-6.28-5.18-6.28c-0.6,0-1.17,0.13-1.71,0.35l-10.24,4.81c0.16-2.46,0.82-4.75,1.86-6.71
				c0.33-0.63,0.7-1.23,1.11-1.79c1.58-2.16,3.68-3.75,6.06-4.47c0.93-0.29,1.91-0.44,2.92-0.44c0.83,0,1.64,0.1,2.43,0.3
				c2.16,0.54,4.11,1.78,5.67,3.52C518.89,548.82,520.14,551.3,520.71,554.1z"/>
			<path class="st5" d="M512.64,538.33c1.6-0.72,2.71-1.21,2.71-1.21s2.5,0.27,3.34,1.28v0.01c-0.7,0.13-1.38,0.35-2.03,0.63
				l-10.57,4.3l0.07,0.21c-2.38,0.72-4.48,2.31-6.06,4.47l-0.21-0.14c0,0-0.07-3.41,1.7-4.43c1.07-0.62,5.91-2.82,9.54-4.45
				C511.67,538.76,512.18,538.53,512.64,538.33z"/>
			<path class="st5" d="M518.21,531.26l0.1,0.05c-0.35,0.78-0.28,1.38-0.25,1.57c-2.17,1.26-4.01,3.1-5.42,5.45
				c-0.46,0.2-0.97,0.43-1.51,0.67l-0.01-0.01c-0.14-1.05-0.1-2.5,0.82-3.6C513.58,533.44,518.21,531.26,518.21,531.26z"/>
			<path class="st9" d="M500.84,568.18l-68.04,31.96l-12.99,2l-0.78-0.44l0.56-1l0.2-0.05l-0.27-1.08l10.05-5.75l-1.33-2.83
				l-1.18-1.19l0.7-0.69l69.35-32.58c0.01,0.01,0.02,0.02,0.02,0.02c0-0.01,0-0.02,0-0.03l10.24-4.81c0.54-0.22,1.11-0.35,1.71-0.35
				c2.86,0,5.18,2.81,5.18,6.28c0,2.28-1,4.28-2.5,5.38l-0.46,0.24L500.84,568.18z"/>
			<path class="st5" d="M498.94,549.78l0.05,0.03c-1.04,1.96-1.7,4.25-1.86,6.71l-0.02,0.01c-0.19-0.14-1.56-1.28-1.24-2.93
				c0.34-1.77,1.36-2.66,1.36-2.66L498.94,549.78z"/>
			<polygon class="st9" points="428.24,590.99 429.57,593.82 419.52,599.57 419.79,600.65 419.59,600.7 419.03,601.7 418.18,601.23 
				417.82,598.96 427.06,589.8 			"/>
			<path class="st4" d="M88.88,501.61v-4.81l-0.06-0.59c-0.23-7.73,18.63-15.64,42.94-17.87c24.94-2.29,46.13,1.92,47.39,9.83
				l0.05,0.34v97.26c1.26,7.91-17.94,16.18-42.89,18.47c-24.94,2.29-46.17-2.27-47.43-10.17v-10.73v-14.89v-52.4V501.61z
				 M136.05,505.04c22.54-2.06,39.92-9.28,38.81-16.12c-1.11-6.84-20.29-10.71-42.83-8.65c-22.54,2.07-39.92,9.28-38.81,16.12
				C94.33,503.23,113.5,507.1,136.05,505.04z"/>
			<path class="st9" d="M174.86,488.92c1.11,6.84-16.27,14.06-38.81,16.12c-22.55,2.06-41.72-1.81-42.83-8.65
				c-1.11-6.84,16.27-14.05,38.81-16.12C154.57,478.21,173.75,482.08,174.86,488.92z"/>
			<path class="st4" d="M88.88,568.45v14.89h-0.17c-2.09,0.85-3.6-0.35-5.87-0.33c-0.41,0-0.81-0.01-1.21-0.03
				c-13.98-0.87-25.3-18.54-25.52-40.3c-0.23-22.37,11.36-40.6,25.89-40.7c2.27-0.02,4.77-1.19,6.88-0.37v14.44H88.7
				c-1.57-0.66-3.22-1.02-4.92-1c-9.9,0.07-17.8,12.49-17.64,27.74c0.15,14.78,7.82,26.8,17.31,27.46c0.3,0.02,0.6,0.03,0.9,0.03
				c1.72-0.01,2.52-1.13,4.09-1.83H88.88z"/>
		</g>
		<g>
			<path class="st6" d="M497.13,556.55c0-0.01,0-0.02,0-0.03c0.16-2.46,0.82-4.75,1.86-6.71c0.33-0.63,0.7-1.23,1.11-1.79
				c1.58-2.16,3.68-3.75,6.06-4.47c0.93-0.29,1.91-0.44,2.92-0.44c0.83,0,1.64,0.1,2.43,0.3c2.16,0.54,4.11,1.78,5.67,3.52
				c1.71,1.89,2.96,4.37,3.53,7.17c0.24,1.13,0.36,2.32,0.36,3.54c0,1.62-0.22,3.18-0.63,4.64c-0.56,2.05-1.5,3.9-2.71,5.42
				c-1.91,2.41-4.49,4.02-7.37,4.38c-0.42,0.06-0.85,0.09-1.28,0.09c-3.19,0-6.1-1.51-8.24-3.99c-0.03-0.03-0.05-0.06-0.08-0.09"/>
			<path class="st6" d="M535.4,535c0.71,0.65,1.36,1.39,1.97,2.19c1.68,2.23,2.94,4.94,3.62,7.94c0.37,1.64,0.57,3.37,0.57,5.15
				c0,0.86-0.05,1.7-0.14,2.53c-0.34,3.25-1.36,6.25-2.87,8.79c-1.41,2.39-3.26,4.37-5.41,5.77c-0.12,0.08-0.24,0.16-0.36,0.23
				c-2.17,1.33-4.62,2.08-7.21,2.08c-1.34,0-2.64-0.2-3.88-0.58"/>
			<path class="st6" d="M512.62,538.35c0-0.01,0.01-0.01,0.02-0.02c1.41-2.35,3.25-4.19,5.42-5.45c0.71-0.42,1.46-0.78,2.24-1.05
				c1.64-0.62,3.41-0.94,5.27-0.94c3.58,0,6.9,1.43,9.57,3.85"/>
			<path class="st6" d="M532.12,557.02c-0.52,2.09-1.44,3.97-2.63,5.54c-0.03,0.05-0.07,0.09-0.1,0.14"/>
			<path class="st6" d="M528.73,541.99c1.72,1.9,2.98,4.4,3.56,7.23c0.01,0.04,0.02,0.09,0.03,0.13"/>
			<path class="st6" d="M518.69,538.4c0.64-0.12,1.3-0.19,1.97-0.19c0.78,0,1.54,0.08,2.27,0.26"/>
			<path class="st6" d="M506.09,543.34l10.57-4.3c0.65-0.28,1.33-0.5,2.03-0.63"/>
			<path class="st6" d="M500.84,568.18l10.46-4.92l0.46-0.24c1.5-1.1,2.5-3.1,2.5-5.38c0-3.47-2.32-6.28-5.18-6.28
				c-0.6,0-1.17,0.13-1.71,0.35l-10.24,4.81l-0.02,0.01l-69.35,32.58l-0.7,0.69l-9.24,9.16l0.36,2.27l0.85,0.47l0.78,0.44l12.99-2
				L500.84,568.18z"/>
			<path class="st6" d="M88.88,594.07v-10.73v-14.89v-52.4v-14.44v-4.81l-0.06-0.59c-0.23-7.73,18.63-15.64,42.94-17.87
				c24.94-2.29,46.13,1.92,47.39,9.83l0.05,0.34v97.26"/>
			<path class="st6" d="M179.2,585.77c1.26,7.91-17.94,16.18-42.89,18.47c-24.94,2.29-46.17-2.27-47.43-10.17"/>
			<path class="st6" d="M174.86,488.92c1.11,6.84-16.27,14.06-38.81,16.12c-22.55,2.06-41.72-1.81-42.83-8.65
				c-1.11-6.84,16.27-14.05,38.81-16.12C154.57,478.21,173.75,482.08,174.86,488.92z"/>
			<path class="st10" d="M88.71,583.34c-2.09,0.85-3.6-0.35-5.87-0.33c-0.41,0-0.81-0.01-1.21-0.03
				c-13.98-0.87-25.3-18.54-25.52-40.3c-0.23-22.37,11.36-40.6,25.89-40.7c2.27-0.02,4.77-1.19,6.88-0.37h0.01"/>
			<path class="st10" d="M88.44,568.45c-1.57,0.7-2.37,1.82-4.09,1.83c-0.3,0-0.6-0.01-0.9-0.03c-9.49-0.66-17.16-12.68-17.31-27.46
				c-0.16-15.25,7.74-27.67,17.64-27.74c1.7-0.02,3.35,0.34,4.92,1"/>
			<path class="st6" d="M532.51,532.56c-0.17-0.12-0.36-0.24-0.54-0.35l40.5-18.98c0,0,2.39-1.02,4.25-0.63
				c0.48,0.1,0.93,0.29,1.29,0.63c1.73,1.64,1.09,3.73,1.09,3.73l-41.29,20.02l-0.44,0.21l-0.04,0.02c0,0-0.75-1.01-1.93-2.21
				c-0.08-0.09-0.17-0.17-0.26-0.26C534.39,534.01,533.5,533.22,532.51,532.56z"/>
			<path class="st6" d="M532.56,532.48c0,0,1.27-0.99,2.77,0.09c1.5,1.09,2.41,4.27,2.41,4.27"/>
			<path class="st6" d="M518.07,532.94c0,0-0.01-0.02-0.01-0.06c-0.03-0.19-0.1-0.79,0.25-1.57c0.24-0.55,0.69-1.18,1.49-1.82
				c2.18-1.73,42.68-19.62,42.68-19.62s2-1,4.27,0.73"/>
			<path class="st6" d="M541.59,552.83l44.87-21.25c0,0,1.36-1.46,0.81-3.73c-0.54-2.27-2.9-2.54-2.9-2.54l-43.32,19.8
				c0,0,1.82,1.27,2.18,3.27C543.59,550.37,541.59,552.83,541.59,552.83z"/>
			<path class="st6" d="M585.14,542.61c4.07-3.52,5.49-8.15,5.58-14.67c0.16-10.93-6.93-15.57-13.57-17.15
				c-4.38-1.05-8.56-0.78-10.37-0.11c-0.31,0.11-0.55,0.24-0.71,0.37l-45.77,20.78l-0.14,0.06"/>
			<path class="st6" d="M534.64,567.97c1.48-0.7,48.88-23.28,49.55-24.13c0.35-0.45,0.61-0.89,0.8-1.3
				c0.76-1.63,0.38-2.79,0.38-2.79l-46.59,21.98c0,0,0,2.13-0.68,3.27C537.47,566.05,534.98,567.74,534.64,567.97"/>
			<path class="st6" d="M534.64,567.97c-0.03,0.01-0.04,0.02-0.04,0.02"/>
			<polyline class="st6" points="533.55,567.18 533.14,567.37 532.69,567.58 532.78,567.6 534.6,567.99 			"/>
			<path class="st6" d="M511.12,538.99c-0.14-1.05-0.1-2.5,0.82-3.6c1.64-1.95,6.27-4.13,6.27-4.13"/>
			<path class="st6" d="M499.89,547.88c0,0-0.07-3.41,1.7-4.43c1.07-0.62,5.91-2.82,9.54-4.45c0.54-0.24,1.05-0.47,1.51-0.67
				c1.6-0.72,2.71-1.21,2.71-1.21s2.5,0.27,3.34,1.28v0.01"/>
			<path class="st6" d="M511.54,543.31l11.48-4.61l0.37-0.15c0,0,1.84-1.37,3.67,0.06c1.84,1.43,1.84,3.27,1.84,3.27
				s-0.06,0.03-0.18,0.08c-1.48,0.61-11.53,4.84-11.53,4.96"/>
			<path class="st6" d="M497.13,556.55c0,0-0.01-0.01-0.02-0.02c-0.19-0.14-1.56-1.28-1.24-2.93c0.34-1.77,1.36-2.66,1.36-2.66
				l1.71-1.16"/>
			<path class="st6" d="M520.71,554.1l11.49-4.95c0,0,0.03,0.02,0.09,0.07c0.33,0.27,1.54,1.36,1.86,2.88
				c0.36,1.77-1.82,4.72-1.82,4.72l-0.25,0.12l-11.37,5.42"/>
			<path class="st6" d="M517.73,567.7l11.65-5.45c0,0,0.05,0.12,0.11,0.31c0.11,0.39,0.24,1.09-0.04,1.73
				c-0.41,0.95-3.2,2.59-3.2,2.59l-4.6,2.14l-8.55,3.99c0,0-1.9,0-2.72-0.82"/>
			<polyline class="st10" points="419.52,599.57 429.57,593.82 428.24,590.99 			"/>
			<polyline class="st10" points="419.59,600.7 419.79,600.65 431.75,597.66 432.12,598.72 			"/>
			<path class="st6" d="M540.48,592l-11.03,6.53c0,0-1.08,1.05-0.42,3.08c0.66,2.03,3.49,1.87,3.49,1.87l10.12-5.99l6.08-3.6
				c0,0,1.75-1.44,0.59-3.62c-1.15-2.18-3.67-1.33-3.67-1.33L540.48,592z"/>
			<path class="st6" d="M540.47,591.99c-0.96-5.11,0.78-9.73,4.09-10.56c3.52-0.89,7.49,2.84,8.86,8.32
				c1.31,5.21-0.19,10.11-3.37,11.35c-0.16,0.07-0.33,0.13-0.51,0.17c-2.4,0.6-5.01-0.95-6.87-3.73"/>
			<path class="st6" d="M544.56,581.43c0,0,6.72-3.35,11.19,3.58c0,0,3.52,5.36,1.15,10.95c-1.84,4.35-6.83,5.19-6.83,5.19"/>
			<path class="st6" d="M583.52,608.56l11.03,6.53c0,0,1.07,1.05,0.41,3.08c-0.66,2.03-3.49,1.87-3.49,1.87l-10.12-5.99l-6.07-3.59
				c0,0-1.76-1.45-0.6-3.63c1.15-2.18,3.68-1.33,3.68-1.33L583.52,608.56z"/>
			<path class="st6" d="M583.52,608.56c0.96-5.12-0.77-9.74-4.09-10.57c-3.52-0.88-7.49,2.84-8.86,8.32
				c-1.31,5.21,0.2,10.13,3.38,11.36c0.16,0.06,0.33,0.12,0.5,0.16c2.41,0.6,5.02-0.94,6.87-3.73"/>
			<path class="st6" d="M579.43,597.99c0,0-6.72-3.35-11.19,3.58c0,0-3.52,5.37-1.15,10.95c1.85,4.35,6.84,5.19,6.84,5.19"/>
		</g>
	</g>
	<path class="st2" d="M117.97,531.13l4.22-3.6c1.12-0.95,1.25-2.63,0.3-3.74s-2.63-1.25-3.74-0.3l-4.22,3.6l-3.96-4.63
		c-0.95-1.12-2.63-1.25-3.74-0.3s-1.25,2.63-0.3,3.74l3.96,4.63l-4.9,4.18c-1.12,0.95-1.25,2.63-0.3,3.74
		c0.95,1.12,2.63,1.25,3.74,0.3l4.9-4.18l3.83,4.48c0.95,1.12,2.63,1.25,3.74,0.3v0c1.12-0.95,1.25-2.63,0.3-3.74L117.97,531.13z"/>
	<path class="st2" d="M143.13,531.86l4.22-3.6c1.12-0.95,1.25-2.63,0.3-3.74s-2.63-1.25-3.74-0.3l-4.22,3.6l-3.96-4.63
		c-0.95-1.12-2.63-1.25-3.74-0.3s-1.25,2.63-0.3,3.74l3.96,4.63l-4.9,4.18c-1.12,0.95-1.25,2.63-0.3,3.74
		c0.95,1.12,2.63,1.25,3.74,0.3l4.9-4.18l3.83,4.48c0.95,1.12,2.63,1.25,3.74,0.3v0c1.12-0.95,1.25-2.63,0.3-3.74L143.13,531.86z"/>
	<path class="st2" d="M125.94,544.2c-5.37,0-9.72,5.37-9.72,11.99c0,6.62,4.35,11.99,9.72,11.99s9.72-5.37,9.72-11.99
		C135.66,549.57,131.31,544.2,125.94,544.2z M125.94,563.77c-3.4,0-6.15-3.4-6.15-7.59c0-4.19,2.75-7.59,6.15-7.59
		s6.15,3.4,6.15,7.59C132.1,560.38,129.34,563.77,125.94,563.77z"/>
</g>
<g id="smoke">
	<linearGradient id="SVGID_1_" gradientUnits="userSpaceOnUse" x1="126.7911" y1="504.7254" x2="126.7911" y2="314.3687">
		<stop  offset="1.034007e-03" style="stop-color:#FAFBFC"/>
		<stop  offset="1" style="stop-color:#292C33;stop-opacity:0"/>
	</linearGradient>
	<path class="st11" d="M173.26,476.45c-2.45-10.9-13.89-17.98-14.98-25.34c-1.09-7.36-14.98-28.06-1.91-49.31
		c13.08-21.25-6.54-26.7-14.71-48.49s-6.54-14.44,4.09-31.88c10.63-17.44-25.88,0-28.33,23.97c-2.45,23.97,14.98,34.6,2.18,54.22
		c-12.8,19.62-37.87,18.25-40.32,48.49c-2.45,30.24,14.17,33.51,14.44,44.95c0.82,3.27,0.54,6.27,4.9,7.36
		c0,0,24.88,12.26,70.56-4.63C174.89,491.16,175.71,487.35,173.26,476.45z M130.35,428.84c-5.4,7.04-10.44,14.21-10.98,23.4
		c-0.2,3.41,0.76,4.52,1.54,7.61c1.1,4.39,0.02,8.47-2.67,12c-2.77,3.64-10.46,8.6-15.09,5.44c-3.26-2.23-8.32-8.59-6.45-15.28
		c-2.47-5.49-1.93-14.47,1.09-19.62c2.7-4.6,7.04-6.8,10.92-10.09c4.84-4.1,7.54-9.8,11.42-14.66c2.34-2.93,9.37-9.77,13.65-6.71
		C139.49,415.03,132.89,425.52,130.35,428.84z"/>
</g>
<g id="_x34_04_error_text">
	<g>
		<path class="st2" d="M274.64,296.21l14.32-44.26l2.36,11.3l-8.69,30.11l-6.63,7.07L274.64,296.21z M307,296.97l2.81,5.64
			l-4.68,5.64l-26.4-0.01l-2.03-5.64l5.26-5.64L307,296.97z M307.97,293.36l4.91-30.08l7.46-11.28l-5.68,44.22l-3.21,4.21
			L307.97,293.36z M313.03,309.01l-5.66,44.1l-7.31-11.29l4.92-30.1l5.89-7.07L313.03,309.01z"/>
		<path class="st2" d="M333.41,293.38l-4.85,7.07l-2.43-4.21l3.2-44.21l5.2,11.28L333.41,293.38z M331.59,341.8l-9.58,11.28
			l3.19-44.06l3.1-4.36l4.41,7.07L331.59,341.8z M359.46,250.09l-4.56,11.27l-19.27-0.02l-5.12-11.28L359.46,250.09z M371.69,355.18
			h-48.1l9.46-11.28l28.62,0L371.69,355.18z M366.17,296.25l-2.15,4.21l-5.27-7.07l-2.64-30.07l4.63-11.27L366.17,296.25z
			 M373.15,353.07l-10.14-11.28l-2.64-30.07l4.12-7.06l3.26,4.36L373.15,353.07z"/>
		<path class="st2" d="M377.63,296.25l-7.91-44.23l8.03,11.29l6.43,30.09l-3.07,7.07L377.63,296.25z M410.37,297.02l5.65,5.64
			l-1.84,5.63l-26.4-0.01l-4.86-5.64l2.43-5.64L410.37,297.02z M409.53,293.41l-10.2-30.06l1.8-11.27l16.54,44.18l-1.09,4.21
			L409.53,293.41z M422.45,309.04l16.49,44.07l-12.98-11.28l-10.21-30.08l2.34-7.07L422.45,309.04z"/>
	</g>
	<g>
		<path class="st2" d="M258.1,384.23l2.73-13.11l2.37,3.19l-1.83,9.11l-2.36,2L258.1,384.23z M260.33,388.62l-1.83,9.13l-3.89,3.2
			l2.73-13.1l1.43-1.24L260.33,388.62z M263.46,376.57l0.44-2.28h2.14l5.98,7.76l-0.39,2.26l-2.15-0.01L263.46,376.57z
			 M272.53,383.42l1.58-9.13l3.57-3.2l-2.17,13.13l-1.34,1.19L272.53,383.42z M274.9,387.85l-2.17,13.09l-2.69-3.2l1.58-9.13l2.34-2
			L274.9,387.85z"/>
		<path class="st2" d="M283.72,383.42l-2.25,2l-0.98-1.19l1.43-9.34l1.74-1.62l1.3,1.62L283.72,383.42z M278.51,397.15l1.34,1.62
			l1.87-1.62l1.24-8.53l-1.67-2l-1.36,1.24L278.51,397.15z M297.1,372.71l-1.69,1.62h-9.85l-1.26-1.62l1.72-1.58h9.76L297.1,372.71z
			 M281.73,400.95l-1.37-1.58l1.83-1.62h10.43l1.4,1.62l-1.78,1.58H281.73z M297.89,384.23l-1.27,1.19l-1.75-2l1-8.53l1.71-1.62
			l1.34,1.62L297.89,384.23z M296.47,397.15l-1.79,1.62l-1.42-1.62l1-8.53l2.23-2l1.01,1.24L296.47,397.15z"/>
		<path class="st2" d="M320.99,371.13l-3.17,3.2h-10.94l-2.73-3.2H320.99z M313.01,385.85l-1.25,1.15l-1.81-1.96l0.68-8.54
			l1.63-1.57l1.43,1.57L313.01,385.85z M312.04,399.38l-1.76,1.58l-1.47-1.58l0.73-9.18l2.13-2.01l1.09,1.19L312.04,399.38z"/>
		<path class="st2" d="M336.06,384.23l0.19-12.54l2.99,3.2l-0.06,8.53l-1.97,2L336.06,384.23z M339.14,388.62l-0.06,8.54l-3.26,3.2
			l0.19-12.51l1.19-1.24L339.14,388.62z M353.09,371.13l-2.91,3.2h-10.41l-2.95-3.2H353.09z M350.18,384.4l1.62,1.6l-1.55,1.6
			h-10.93l-1.53-1.6l1.55-1.6H350.18z"/>
		<path class="st2" d="M361.52,383.42l-1.86,2l-1.21-1.19l-0.38-9.34l1.43-1.62l1.61,1.62L361.52,383.42z M358.96,397.15l1.66,1.62
			l1.56-1.62l-0.41-8.53l-2.06-2l-1.12,1.24L358.96,397.15z M372.83,372.71l-1.37,1.62h-9.85l-1.57-1.62l1.42-1.58h9.77
			L372.83,372.71z M362.92,400.95l-1.67-1.58l1.51-1.62h10.43l1.71,1.62l-1.48,1.58H362.92z M375.85,384.23l-1.04,1.19l-2.14-2
			l-0.65-8.53l1.39-1.62l1.65,1.62L375.85,384.23z M376.92,397.15l-1.48,1.62l-1.74-1.62l-0.65-8.53l1.84-2l1.25,1.24L376.92,397.15
			z"/>
		<path class="st2" d="M380.83,384.23l-1.25-13.1l3.34,3.19l0.94,9.11l-1.75,2L380.83,384.23z M382.07,397.15l1.75,1.62l1.47-1.62
			l-0.88-8.53l-2.17-2l-1.05,1.24L382.07,397.15z M386.24,400.95l-1.76-1.58l1.42-1.62h10.43l1.8,1.62l-1.39,1.58H386.24z
			 M395.01,383.42l-1.2-9.13l2.59-3.2l1.82,13.13l-0.97,1.19L395.01,383.42z M400.03,397.15l-1.39,1.62l-1.83-1.62l-1.12-8.53
			l1.73-2l1.31,1.24L400.03,397.15z"/>
		<path class="st2" d="M403.22,384.23l-1.98-13.11l3.52,3.19l1.45,9.11l-1.64,2L403.22,384.23z M407.03,388.62l1.45,9.13l-2.74,3.2
			l-1.98-13.1l0.98-1.24L407.03,388.62z M405.83,376.57l-0.39-2.28h2.14l8.78,7.76l0.42,2.26l-2.15-0.01L405.83,376.57z
			 M417.35,383.42l-1.7-9.13l2.42-3.2l2.55,13.13l-0.91,1.19L417.35,383.42z M421.32,387.85l2.55,13.09l-3.84-3.2l-1.7-9.13l1.62-2
			L421.32,387.85z"/>
		<path class="st2" d="M428.54,383.42l-1.53,2l-1.41-1.19l-2.59-12.54l3.7,3.2L428.54,383.42z M431.49,397.15l-2.55,3.2l-2.58-12.5
			l0.91-1.24l2.39,2L431.49,397.15z M438.07,372.71l-1.1,1.62h-9.85l-3.66-3.2h12.74L438.07,372.71z M444.59,399.37l-1.21,1.58
			h-13.71l2.51-3.2h10.43L444.59,399.37z M443,384.23l-0.84,1.19l-2.47-2l-2.07-8.53l1.12-1.62l1.92,1.62L443,384.23z
			 M446.23,397.15l-1.21,1.62l-2.01-1.62l-2.07-8.53l1.51-2l1.45,1.24L446.23,397.15z"/>
	</g>
</g>
</svg>
